<?xml version="1.0" standalone="no"?><!DOCTYPE svg PUBLIC "-//W3C//DTD SVG 1.1//EN" "http://www.w3.org/Graphics/SVG/1.1/DTD/svg11.dtd"><svg t="1649413371568" class="icon" viewBox="0 0 1024 1024" version="1.1" xmlns="http://www.w3.org/2000/svg" p-id="2206" xmlns:xlink="http://www.w3.org/1999/xlink" width="200" height="200"><defs><style type="text/css"></style></defs><path d="M5.821077 426.040233c0 53.323463 40.4779 97.755418 95.068216 110.583584l0 376.50505L37.510824 913.128867c-17.45965 0-31.689746 12.827143-31.689746 28.664853 0 15.835663 14.230096 28.646434 31.689746 28.646434l950.684204 0c17.577331 0 31.689746-12.827143 31.689746-28.646434s-14.112416-28.64848-31.69077-28.64848L924.816558 913.14524 924.816558 536.62484c54.590316-12.82919 95.068216-57.261145 95.068216-110.583584L1019.884774 397.393799 5.821077 397.393799 5.821077 426.040233zM639.610888 540.64541c70.071915 0 126.757962-51.310619 126.757962-114.605178 0 53.323463 40.4779 97.755418 95.068216 110.583584l0 376.50505L386.094964 913.128867l0-372.483456c70.071915 0 126.757962-51.310619 126.757962-114.605178C512.852926 489.334791 569.657676 540.64541 639.610888 540.64541zM354.405217 536.62484l0 376.50505L164.268786 913.12989 164.268786 536.62484c54.590316-12.82919 95.068216-57.261145 95.068216-110.583584C259.338025 479.363695 299.814901 523.795651 354.405217 536.62484zM893.126812 139.517567 132.580063 139.517567 5.821077 368.728946l1014.063697 0L893.126812 139.517567zM273.568121 203.200982l-63.379493 114.606201c-2.838651 5.036713-8.417717 7.943926-14.230096 7.943926-2.349511 0-4.76656-0.438998-7.048533-1.50426-7.791453-3.51608-11.019984-12.151761-7.04751-19.200294l63.378469-114.606201c3.955078-7.04751 13.419637-9.904581 21.228487-6.439666C274.311041 187.533141 277.404496 196.152449 273.568121 203.200982zM400.32506 203.200982l-63.378469 114.606201c-2.839675 5.036713-8.417717 7.943926-14.231119 7.943926-2.349511 0-4.765537-0.438998-7.04751-1.50426-7.791453-3.51608-11.019984-12.151761-7.048533-19.200294l63.379493-114.606201c3.955078-7.04751 13.487176-9.904581 21.227464-6.439666C401.070027 187.533141 404.162458 196.152449 400.32506 203.200982zM528.705985 311.435055c0 7.943926-7.064906 14.332427-15.85306 14.332427-8.738012 0-15.85306-6.372128-15.85306-14.332427L496.999866 196.828854c0-7.943926 7.115048-14.332427 15.85306-14.332427 8.788154 0 15.85306 6.372128 15.85306 14.332427L528.705985 311.435055zM710.66313 323.974649c-2.467191 1.234107-5.070482 1.791809-7.67275 1.791809-5.577019 0-11.019984-2.687202-13.858636-7.436366l-69.328995-114.606201c-4.207835-6.946202-1.351787-15.666818 6.304589-19.419282 7.55507-3.802606 17.323551-1.351787 21.548782 5.64558L716.983069 304.555367C721.056851 311.485197 718.33588 320.223209 710.66313 323.974649zM836.812225 324.245825c-2.24718 1.065262-4.580319 1.50426-7.063883 1.50426-5.814426 0-11.391445-2.907213-14.112416-7.943926L752.256434 203.200982c-3.955078-7.04751-0.743944-15.667841 7.04751-19.200294 7.691169-3.515057 17.324574-0.675382 21.296025 6.439666l63.379493 114.606201C847.814814 312.094064 844.738755 320.730769 836.812225 324.245825zM275.190061 745.570663l0-66.015529c-9.29469-5.053086-15.852036-13.774725-15.852036-24.285103 0-15.83771 14.230096-28.64848 31.688723-28.64848 17.577331 0 31.689746 12.82919 31.689746 28.64848 0 10.510378-6.506181 19.249413-15.85306 24.303522l0 66.015529c9.346879 5.053086 15.85306 13.774725 15.85306 24.303522 0 15.83771-14.112416 28.646434-31.689746 28.646434-17.458627 0-31.688723-12.827143-31.688723-28.646434C259.338025 759.363807 265.895371 750.625796 275.190061 745.570663zM132.580063 82.205257c0-15.836687 14.230096-28.647457 31.689746-28.647457l697.16828 0c17.577331 0 31.689746 12.81077 31.689746 28.647457s-14.112416 28.647457-31.689746 28.647457l-697.16828 0C146.810159 110.87011 132.580063 98.041944 132.580063 82.205257zM561.240983 694.040033l-22.394033-20.264533 89.626273-81.038688 22.394033 20.264533L561.240983 694.040033zM561.240983 775.080767l-22.394033-20.264533 179.235151-162.080445 22.394033 20.264533L561.240983 775.080767zM718.099497 673.7755l22.394033 20.264533-89.626273 81.040734-22.394033-20.264533L718.099497 673.7755z" p-id="2207"></path></svg>